<svg xmlns="http://www.w3.org/2000/svg" version="1.0" width="60" height="54" viewBox="-3 -3 468 428" preserveAspectRatio="xMidYMid meet"><g id="deeditor_bgCarrier" stroke-width="0"><rect id="dee_c_e" x="-3" y="-3" width="468" height="428" rx="0" fill="#ffffff" strokewidth="0" /></g><g transform="translate(0.000000,422.000000) scale(0.100000,-0.100000)" fill="#000000" stroke="none"><path d="M3825 2633 c-114 -59 -185 -75 -300 -72 -189 6 -249 2 -333 -20 -160 -42 -240 -101 -343 -255 -58 -86 -75 -102 -201 -197 -76 -57 -133 -105 -126 -106 7 -2 40 6 73 16 33 10 62 17 64 15 2 -1 -17 -27 -41 -56 -24 -29 -58 -71 -76 -94 l-31 -41 34 -40 c41 -49 100 -75 141 -64 19 5 44 1 76 -11 73 -27 84 -24 54 15 -42 55 -31 67 38 41 13 -5 16 1 16 26 0 33 3 33 58 12 10 -3 11 2 6 22 -4 18 -1 33 9 44 8 9 32 78 52 153 l38 137 148 101 c82 56 149 98 149 93 0 -22 -43 -105 -78 -149 -28 -34 -58 -58 -106 -81 -75 -37 -102 -70 -112 -142 -3 -25 -8 -53 -11 -64 -4 -16 -1 -18 22 -14 95 19 207 -83 209 -191 1 -38 -3 -47 -34 -72 -19 -16 -45 -29 -57 -29 -16 0 -23 -6 -23 -20 0 -15 -9 -22 -30 -26 -21 -5 -30 -12 -30 -26 0 -28 -22 -31 -79 -9 -57 21 -61 17 -36 -43 13 -30 27 -43 78 -67 111 -52 140 -45 356 93 69 44 151 93 183 109 32 16 174 60 320 99 144 39 263 72 264 73 12 17 60 163 54 165 -5 2 -88 -17 -184 -42 -96 -25 -180 -46 -186 -46 -7 0 -10 27 -8 77 l3 76 110 29 c61 16 162 42 226 59 l117 31 32 84 c18 46 31 86 29 88 -2 2 -110 -25 -239 -60 -129 -35 -245 -66 -257 -69 -22 -5 -23 -3 -23 74 l0 80 38 10 c20 6 154 41 296 78 258 68 259 68 272 100 8 17 17 57 20 88 l7 56 -24 -10 c-27 -12 -553 -151 -569 -151 -6 0 -2 17 9 38 26 51 37 122 19 122 -7 -1 -44 -17 -83 -37z" fill="#000000" /><path d="M405 2496 c-5 -3 -22 -7 -37 -10 -37 -8 -85 -51 -109 -97 -18 -36 -102 -430 -115 -546 l-7 -53 61 0 60 0 38 200 38 200 43 0 c37 0 45 4 53 26 20 53 14 64 -35 64 -49 0 -52 5 -32 53 18 42 42 61 80 62 28 0 32 4 44 44 7 25 12 46 10 47 -5 6 -82 13 -92 10z" fill="#000000" /><path d="M1883 2491 c-49 -12 -81 -37 -112 -87 -24 -37 -37 -88 -80 -312 -29 -147 -54 -275 -57 -284 -5 -16 2 -18 59 -18 59 0 65 2 70 23 3 12 20 102 38 200 l33 177 58 0 c32 0 58 -1 59 -2 0 -2 11 -88 24 -193 l23 -190 -24 -37 c-20 -31 -51 -57 -112 -94 -2 -1 8 -25 23 -53 l26 -52 31 18 c51 30 125 122 172 213 35 67 146 327 197 458 8 21 7 22 -54 22 l-63 0 -57 -172 -56 -173 0 173 -1 172 -115 0 c-72 0 -115 4 -115 10 0 20 27 75 43 89 9 7 31 14 49 15 28 1 33 7 46 44 8 24 12 45 10 47 -9 9 -86 13 -115 6z" fill="#000000" /><path d="M1584 2480 c-12 -5 -27 -25 -34 -45 -10 -30 -9 -40 4 -60 37 -56 108 -32 114 39 5 61 -30 88 -84 66z" fill="#000000" /><path d="M1326 2402 l-60 -17 -11 -50 c-8 -42 -14 -51 -35 -53 -32 -5 -36 -10 -44 -54 -6 -35 -5 -37 22 -40 l29 -3 -23 -115 c-13 -63 -23 -141 -23 -173 -1 -52 2 -62 28 -88 25 -25 37 -29 84 -29 61 0 72 8 80 63 5 31 3 37 -13 37 -58 0 -61 22 -29 196 l22 114 73 0 c41 0 74 -3 74 -7 0 -5 -16 -89 -35 -188 -19 -99 -35 -186 -35 -193 0 -10 16 -12 62 -10 l62 3 46 240 46 240 -139 3 -139 3 6 24 c9 36 19 115 15 114 -2 0 -31 -8 -63 -17z" fill="#000000" /><path d="M607 2276 c-83 -30 -153 -110 -182 -210 -20 -66 -19 -189 1 -231 32 -67 112 -71 176 -8 l38 37 0 -37 0 -37 54 0 53 0 7 83 c3 45 20 150 36 232 17 83 30 153 30 157 0 12 -72 28 -125 28 -27 -1 -67 -7 -88 -14z m69 -125 c-10 -74 -44 -202 -61 -228 -41 -62 -85 -44 -85 36 0 93 48 202 100 228 46 23 53 18 46 -36z" fill="#000000" /><path d="M964 2271 c-49 -22 -91 -74 -95 -116 -5 -68 1 -85 51 -140 36 -39 50 -64 50 -84 0 -42 -21 -55 -84 -48 l-53 5 -12 -40 c-15 -48 -10 -54 60 -63 66 -9 126 10 170 54 69 69 63 157 -16 232 -48 46 -59 85 -29 110 15 12 60 16 93 7 9 -2 19 12 27 40 13 42 12 43 -12 52 -40 15 -105 11 -150 -9z" fill="#000000" /></g></svg>
