<svg version="1.1" xmlns="http://www.w3.org/2000/svg" width="64" height="54" viewBox="0 0 403 342"><path d="M0 0 C132.99 0 265.98 0 403 0 C403 112.86 403 225.72 403 342 C270.01 342 137.02 342 0 342 C0 229.14 0 116.28 0 0 Z " fill="#212122" transform="translate(0,0)" /><path d="M0 0 C30.69 0 61.38 0 93 0 C93 30.69 93 61.38 93 93 C62.31 93 31.62 93 0 93 C0 62.31 0 31.62 0 0 Z " fill="#F5DD1D" transform="translate(293,121)" /><path d="M0 0 C2.625 2.25 2.625 2.25 3.5 4.5 C3.54125 5.0775 3.5825 5.655 3.625 6.25 C2.305 7.24 0.985 8.23 -0.375 9.25 C-0.91125 8.92 -1.4475 8.59 -2 8.25 C-4.9141061 7.02300796 -7.24367708 7.10766714 -10.375 7.25 C-10.705 8.57 -11.035 9.89 -11.375 11.25 C-10.8903125 11.55292969 -10.405625 11.85585937 -9.90625 12.16796875 C-8.49637077 13.04914327 -7.08759285 13.93208136 -5.6796875 14.81640625 C-4.17220827 15.75410943 -2.65677901 16.67918084 -1.1328125 17.58984375 C-0.42898438 18.01394531 0.27484375 18.43804687 1 18.875 C1.97066406 19.45121094 1.97066406 19.45121094 2.9609375 20.0390625 C5.3930421 21.80890388 6.51194431 23.55857517 6.99609375 26.51953125 C7.11227018 30.96840499 7.19008745 34.24151799 4.3125 37.8125 C-0.39028856 42.07781985 -5.11077217 41.57684704 -11.1953125 41.54296875 C-16.46830912 41.05712754 -18.69616997 38.92883003 -22.375 35.25 C-22.375 33.25 -22.375 33.25 -21.375 31.25 C-18.3125 30 -18.3125 30 -15.375 29.25 C-15.045 30.24 -14.715 31.23 -14.375 32.25 C-10.85440432 33.42353189 -8.068507 33.45146402 -4.375 33.25 C-2.08771266 31.41116119 -2.08771266 31.41116119 -2.25 28.625 C-2.29125 27.84125 -2.3325 27.0575 -2.375 26.25 C-3.179375 26.023125 -3.98375 25.79625 -4.8125 25.5625 C-10.24088337 23.56256928 -15.47953838 21.31777631 -19.4375 17 C-20.79843853 13.00791365 -21.18308365 9.41125318 -20.375 5.25 C-15.2651179 -1.61184168 -7.79664526 -4.04270495 0 0 Z " fill="#060500" transform="translate(371.375,164.75)" /><path d="M0 0 C12.87 0 25.74 0 39 0 C39 0.66 39 1.32 39 2 C26.79 2 14.58 2 2 2 C2 10.25 2 18.5 2 27 C13.55 27 25.1 27 37 27 C37 27.66 37 28.32 37 29 C25.45 29 13.9 29 2 29 C2 38.24 2 47.48 2 57 C25.04347749 59.49600247 25.04347749 59.49600247 45.7109375 52.1015625 C49.35448723 47.92926317 52.53615312 43.39544964 54 38 C53.31866167 33.19439032 49.26531085 29.02046299 46.375 25.1875 C45.859375 24.49462891 45.34375 23.80175781 44.8125 23.08789062 C43.54657074 21.38826337 42.27394735 19.69362565 41 18 C41.99 18 42.98 18 44 18 C45.44213867 19.46875 45.44213867 19.46875 46.91796875 21.5 C47.71557617 22.5828125 47.71557617 22.5828125 48.52929688 23.6875 C49.07650391 24.450625 49.62371094 25.21375 50.1875 26 C50.74630859 26.763125 51.30511719 27.52625 51.88085938 28.3125 C53.26269692 30.20219237 54.6351601 32.09801324 56 34 C60.39367776 29.81141312 63.93374479 25.26442353 67.51367188 20.37695312 C68.63145233 18.88373497 69.8110824 17.43722251 71 16 C71.66 16 72.32 16 73 16 C71.64783162 18.88387779 70.10247664 21.35417975 68.1796875 23.890625 C67.37724609 24.95410156 67.37724609 24.95410156 66.55859375 26.0390625 C65.72521484 27.13347656 65.72521484 27.13347656 64.875 28.25 C64.31167969 28.99507812 63.74835938 29.74015625 63.16796875 30.5078125 C61.78151746 32.34074811 60.39212232 34.17137013 59 36 C60.83793911 39.876257 63.2850787 43.0884832 65.9375 46.4375 C68.88024074 50.15983144 71.65607 53.86137773 74 58 C70.88647004 56.6504409 69.12749799 55.26825231 67.0546875 52.59375 C66.53519531 51.93246094 66.01570313 51.27117187 65.48046875 50.58984375 C64.95066406 49.90019531 64.42085938 49.21054688 63.875 48.5 C62.81082519 47.13469178 61.7457593 45.77007751 60.6796875 44.40625 C60.21288574 43.80103516 59.74608398 43.19582031 59.26513672 42.57226562 C57.94230524 40.87056232 57.94230524 40.87056232 56 39 C55.65219482 39.46897705 55.30438965 39.9379541 54.94604492 40.42114258 C53.36240831 42.55349886 51.77499882 44.68301773 50.1875 46.8125 C49.64029297 47.55048828 49.09308594 48.28847656 48.52929688 49.04882812 C47.99755859 49.76103516 47.46582031 50.47324219 46.91796875 51.20703125 C46.18743286 52.18893433 46.18743286 52.18893433 45.44213867 53.19067383 C41.71624562 57.86522833 41.71624562 57.86522833 39.0827179 58.36076355 C38.36101913 58.35410172 37.63932037 58.34743988 36.89575195 58.34057617 C35.64767761 58.34003235 35.64767761 58.34003235 34.37438965 58.33947754 C33.50447388 58.32412964 32.63455811 58.30878174 31.73828125 58.29296875 C30.93531616 58.28994751 30.13235107 58.28692627 29.30505371 58.28381348 C26.30740494 58.2681249 23.30993948 58.22624078 20.3125 58.1875 C13.609375 58.125625 6.90625 58.06375 0 58 C0 38.86 0 19.72 0 0 Z " fill="#E0E0E0" transform="translate(18,131)" /><path d="M0 0 C2.64 0 5.28 0 8 0 C8.07435222 4.75053511 8.12869691 9.50072887 8.16479492 14.25170898 C8.17984876 15.86667789 8.20029648 17.48160613 8.22631836 19.09643555 C8.26285286 21.42246555 8.27976015 23.74795341 8.29296875 26.07421875 C8.30845261 26.79212082 8.32393646 27.51002289 8.33988953 28.24967957 C8.34137326 32.7044651 7.68827507 35.43469319 5 39 C1.86548467 42.06725106 -0.54415611 42.45592016 -4.875 42.5 C-8.98331969 42.41964167 -11.56919001 42.17857684 -14.75 39.5 C-15.4925 38.675 -16.235 37.85 -17 37 C-16.6875 35.125 -16.6875 35.125 -16 33 C-13 31 -13 31 -10.8125 31.375 C-10.214375 31.58125 -9.61625 31.7875 -9 32 C-9 32.66 -9 33.32 -9 34 C-6.36 34 -3.72 34 -1 34 C-0.67 22.78 -0.34 11.56 0 0 Z " fill="#020100" transform="translate(335,164)" /><path d="M0 0 C4.03065509 3.83403777 7.64034288 7.80540059 8.5625 13.4375 C8.5625 15.7475 8.5625 18.0575 8.5625 20.4375 C-2.9875 20.4375 -14.5375 20.4375 -26.4375 20.4375 C-24.56242912 31.07737636 -24.56242912 31.07737636 -18.4375 37.4375 C-14.27362077 39.51943962 -8.98347336 38.76433469 -4.4375 38.4375 C-0.56926398 37.14808799 0.96158318 36.24562951 3.375 33 C4.40195189 30.78394592 5.11927504 28.8309148 5.5625 26.4375 C6.2225 26.4375 6.8825 26.4375 7.5625 26.4375 C7.31251963 31.56209764 5.53842917 34.17088803 2.328125 37.921875 C-2.37964772 41.96306043 -7.63179319 41.86298847 -13.55859375 41.75390625 C-18.70779939 41.1879827 -21.25263023 38.68819587 -24.6875 35.0625 C-29.1083793 28.43118105 -29.32481759 21.16078471 -28.4375 13.4375 C-26.53108507 7.537067 -23.85816785 2.71843054 -18.4375 -0.5625 C-12.45726571 -2.55591143 -5.74275324 -2.61034238 0 0 Z M-22.13671875 4.65625 C-25.44141632 9.18160163 -26.4375 12.70834048 -26.4375 18.4375 C-15.5475 18.4375 -4.6575 18.4375 6.5625 18.4375 C5.89053801 9.75628842 5.89053801 9.75628842 1.5625 3.4375 C-5.55368874 -1.73227474 -15.89698737 -1.90862867 -22.13671875 4.65625 Z " fill="#E0E0E0" transform="translate(186.4375,148.5625)" /><path d="M0 0 C5.16484169 2.49019153 8.6010266 6.09173989 11.08984375 11.265625 C13.16643824 17.50432089 12.92815354 25.21074698 10.8125 31.4375 C8.5249187 35.93378049 6.37206685 39.83589324 1.67578125 42.140625 C-4.11515012 44.00048617 -9.97464834 43.99426354 -15.4375 41.3125 C-18 39 -18 39 -22 34 C-22.33 41.26 -22.66 48.52 -23 56 C-23.33 56 -23.66 56 -24 56 C-24 37.85 -24 19.7 -24 1 C-23.67 1 -23.34 1 -23 1 C-22.67 3.64 -22.34 6.28 -22 9 C-21.61328125 8.51789063 -21.2265625 8.03578125 -20.828125 7.5390625 C-20.30734375 6.90742188 -19.7865625 6.27578125 -19.25 5.625 C-18.73953125 4.99851563 -18.2290625 4.37203125 -17.703125 3.7265625 C-12.80678491 -1.23715842 -6.55630503 -0.71187762 0 0 Z M-17.75 6.25 C-22.4083814 11.94357726 -23.63409839 16.88725301 -23.4140625 24.1484375 C-22.51228511 30.35879122 -19.7830294 35.17348208 -15.4375 39.625 C-10.24083262 41.70366695 -5.50884582 41.95998654 0 41 C4.30384681 38.93113329 6.94947068 35.73273766 8.9375 31.4375 C11.07368734 24.48153997 11.37380576 16.15030788 8.375 9.4375 C5.86847579 5.28333051 2.7995254 2.82104207 -1.91796875 1.4375 C-8.28509072 0.25521043 -12.75456365 2.16282481 -17.75 6.25 Z " fill="#F2F2F2" transform="translate(120,147)" /><path d="M0 0 C3.40988118 1.17519119 5.27770663 2.98222298 7.375 5.9375 C8.11362282 8.37495531 8.14071838 10.46706921 8 13 C7.34 13 6.68 13 6 13 C5.7525 11.906875 5.505 10.81375 5.25 9.6875 C3.91576458 5.75150551 3.4231262 5.03943723 0 3 C-6.40168992 1.30575041 -11.259546 1.8244297 -17 5 C-18.23267348 6.00836062 -18.23267348 6.00836062 -18.09765625 8.06640625 C-18.08605469 8.89011719 -18.07445312 9.71382812 -18.0625 10.5625 C-18.05347656 11.38878906 -18.04445312 12.21507812 -18.03515625 13.06640625 C-18.02355469 13.70449219 -18.01195312 14.34257812 -18 15 C-12.37398579 18.06952553 -6.76411514 19.39626325 -0.55859375 20.83984375 C3.11352842 22.03701201 5.22060068 23.35517123 8 26 C9.61051555 29.2210311 9.60168779 32.51689626 9 36 C6.40903288 39.31068021 3.8832965 41.44395149 0 43 C-5.70748536 43.64162581 -11.89221374 44.06422634 -17.125 41.375 C-20.31158727 38.74260182 -21.64998062 36.89123234 -23 33 C-23.1875 30.125 -23.1875 30.125 -23 28 C-22.34 28 -21.68 28 -21 28 C-20.84144531 28.61488281 -20.68289062 29.22976562 -20.51953125 29.86328125 C-20.28621094 30.67152344 -20.05289063 31.47976562 -19.8125 32.3125 C-19.48185547 33.51326172 -19.48185547 33.51326172 -19.14453125 34.73828125 C-17.59594771 37.79845146 -16.12198654 38.62457936 -13 40 C-9.82103642 40.47195283 -9.82103642 40.47195283 -6.5 40.375 C-5.3965625 40.38273437 -4.293125 40.39046875 -3.15625 40.3984375 C0.59849849 39.92444697 3.30199457 38.69800543 6 36 C6.65589404 30.87911194 6.65589404 30.87911194 4.73071289 26.45019531 C2.7806553 24.81620715 1.44393308 24.35879709 -1.01953125 23.7890625 C-1.79490234 23.59570312 -2.57027344 23.40234375 -3.36914062 23.203125 C-4.98520594 22.82074664 -6.60238992 22.44306266 -8.22070312 22.0703125 C-13.67030183 20.70002465 -17.10659579 19.1275013 -21 15 C-22.03819246 11.89074668 -21.7863128 9.16820922 -21 6 C-15.20687853 -1.31762713 -8.81818504 -0.73150853 0 0 Z " fill="#DEDEDE" transform="translate(260,147)" /><path d="M0 0 C2.65991922 1.68789936 4.08564114 3.57182108 5.83203125 6.19140625 C5.95703125 9.37890625 5.95703125 9.37890625 5.83203125 12.19140625 C5.17203125 12.19140625 4.51203125 12.19140625 3.83203125 12.19140625 C3.58453125 11.09828125 3.33703125 10.00515625 3.08203125 8.87890625 C1.74779583 4.94291176 1.25515745 4.23084348 -2.16796875 2.19140625 C-8.5250101 0.50897319 -13.49721444 0.93373888 -19.16796875 4.19140625 C-20.37069694 6.59686263 -20.26868347 8.14137578 -20.23046875 10.81640625 C-20.22144531 11.63367188 -20.21242187 12.4509375 -20.203125 13.29296875 C-20.19152344 13.91945312 -20.17992187 14.5459375 -20.16796875 15.19140625 C-19.59691406 15.3615625 -19.02585938 15.53171875 -18.4375 15.70703125 C-16.70448086 16.22500835 -14.9728313 16.74757854 -13.2421875 17.2734375 C-11.08453881 17.91771633 -8.91967228 18.53807601 -6.75 19.140625 C-5.60917969 19.46675781 -4.46835938 19.79289062 -3.29296875 20.12890625 C-2.22304687 20.42667969 -1.153125 20.72445312 -0.05078125 21.03125 C3.1380505 22.31456034 4.74511015 23.47148538 6.83203125 26.19140625 C7.90059994 30.58353787 7.37848099 34.24017893 5.14453125 38.12890625 C0.01109616 42.70737539 -5.3872379 42.62709338 -11.99609375 42.5 C-16.59052854 42.0530045 -18.63573438 41.1861267 -22.16796875 38.19140625 C-24.48252427 34.59005813 -25.16796875 31.50611921 -25.16796875 27.19140625 C-24.50796875 27.19140625 -23.84796875 27.19140625 -23.16796875 27.19140625 C-23.00941406 27.80628906 -22.85085937 28.42117187 -22.6875 29.0546875 C-22.45417969 29.86292969 -22.22085938 30.67117187 -21.98046875 31.50390625 C-21.64982422 32.70466797 -21.64982422 32.70466797 -21.3125 33.9296875 C-19.76391646 36.98985771 -18.28995529 37.81598561 -15.16796875 39.19140625 C-11.98900517 39.66335908 -11.98900517 39.66335908 -8.66796875 39.56640625 C-7.56453125 39.57414062 -6.46109375 39.581875 -5.32421875 39.58984375 C-1.56947026 39.11585322 1.13402582 37.88941168 3.83203125 35.19140625 C4.48361888 30.0901148 4.48361888 30.0901148 2.59448242 25.6574707 C0.5222156 23.93369148 -1.09613527 23.41229952 -3.6953125 22.7265625 C-4.56994141 22.48357422 -5.44457031 22.24058594 -6.34570312 21.99023438 C-8.18092921 21.50058099 -10.01686705 21.0135873 -11.85351562 20.52929688 C-20.50142984 18.11755332 -20.50142984 18.11755332 -23.16796875 14.19140625 C-24.09688754 11.05701768 -23.93865543 8.3561409 -23.16796875 5.19140625 C-18.70011696 -2.72814331 -7.76419841 -2.89583616 0 0 Z " fill="#E3E3E3" transform="translate(224.16796875,147.80859375)" /><path d="M0 0 C0.66 0 1.32 0 2 0 C2.33 2.31 2.66 4.62 3 7 C3.763125 6.21625 4.52625 5.4325 5.3125 4.625 C9.94428744 0.10092854 9.94428744 0.10092854 13.04296875 -0.1953125 C13.75066406 -0.17210937 14.45835937 -0.14890625 15.1875 -0.125 C17.0746875 -0.063125 17.0746875 -0.063125 19 0 C16.5240566 1.28749057 14.23410145 2.25065771 11.5625 3.125 C6.93930477 5.17001722 4.82176515 8.35182922 3 13 C2.26955975 18.00117989 2.20975035 22.95164365 2.1875 28 C2.16431886 29.36071652 2.13894608 30.72139755 2.11132812 32.08203125 C2.05270607 35.38831491 2.01624062 38.69328182 2 42 C1.34 42 0.68 42 0 42 C0 28.14 0 14.28 0 0 Z " fill="#DCDCDC" transform="translate(139,147)" /><path d="M0 0 C3.01699745 2.86982685 5.75248166 5.64830273 7.5625 9.4375 C7.375 12.375 7.375 12.375 6.5625 14.4375 C6.2325 14.4375 5.9025 14.4375 5.5625 14.4375 C5.335625 13.385625 5.10875 12.33375 4.875 11.25 C3.75164491 7.26572618 1.72508237 5.12569502 -1.4375 2.4375 C-5.88189764 0.21530118 -11.61269227 0.92684517 -16.4375 1.4375 C-20.5408953 3.15109017 -22.22763442 6.03224233 -24.25 9.9375 C-25.219271 12.79429872 -25.98655698 15.46127606 -26.4375 18.4375 C-27.0975 18.1075 -27.7575 17.7775 -28.4375 17.4375 C-28.05900801 11.38162816 -26.33657003 7.13063651 -22.4375 2.4375 C-15.95762873 -2.85219083 -7.61858931 -3.46299514 0 0 Z " fill="#E2E2E2" transform="translate(186.4375,148.5625)" /><path d="M0 0 C0.33 0 0.66 0 1 0 C2.37674033 7.00885988 1.76865332 11.71427637 -2.140625 17.765625 C-4.74838889 21.16562095 -6.98123309 22.70930114 -11 24 C-16.25621159 24.65798282 -20.64376258 24.66578928 -25.4375 22.3125 C-28.92582821 19.1644965 -31.50169243 16.4949227 -33 12 C-32.34 11.67 -31.68 11.34 -31 11 C-30.52820313 11.83144531 -30.52820313 11.83144531 -30.046875 12.6796875 C-29.40492187 13.76636719 -29.40492187 13.76636719 -28.75 14.875 C-28.33234375 15.59429687 -27.9146875 16.31359375 -27.484375 17.0546875 C-25.76200698 19.31189612 -24.67043373 20.0639227 -22 21 C-16.75770319 21.69361866 -10.87412327 22.31908592 -6.4375 19 C-1.73857028 13.21670188 -0.65092985 7.29041433 0 0 Z " fill="#D9D9D9" transform="translate(130,166)" /><path d="M0 0 C0.66 0 1.32 0 2 0 C2.15855469 0.61488281 2.31710938 1.22976562 2.48046875 1.86328125 C2.71378906 2.67152344 2.94710937 3.47976562 3.1875 4.3125 C3.40792969 5.11300781 3.62835938 5.91351563 3.85546875 6.73828125 C5.40405229 9.79845146 6.87801346 10.62457936 10 12 C13.17896358 12.47195283 13.17896358 12.47195283 16.5 12.375 C17.6034375 12.38273438 18.706875 12.39046875 19.84375 12.3984375 C23.59849849 11.92444697 26.30199457 10.69800543 29 8 C29.36760731 5.67182036 29.70241581 3.3381615 30 1 C30.33 1 30.66 1 31 1 C32.45980707 7.20418006 32.45980707 7.20418006 30.375 10.8125 C25.25481993 15.52845533 19.85349069 15.43708636 13.171875 15.30859375 C8.57744021 14.86159825 6.53223437 13.99472045 3 11 C0.68544448 7.39865188 0 4.31471296 0 0 Z " fill="#CDCDCD" transform="translate(199,175)" /><path d="M0 0 C0.66 0.33 1.32 0.66 2 1 C2 3.31 2 5.62 2 8 C-9.88 8 -21.76 8 -34 8 C-34.33 8.66 -34.66 9.32 -35 10 C-35 8.35 -35 6.7 -35 5 C-23.45 5.33 -11.9 5.66 0 6 C0 4.02 0 2.04 0 0 Z " fill="#E9E9E9" transform="translate(193,161)" /><path d="M0 0 C0.66 0 1.32 0 2 0 C2.15855469 0.61488281 2.31710938 1.22976562 2.48046875 1.86328125 C3.89263195 6.88192386 3.89263195 6.88192386 7 10.9375 C11.5583152 12.5519033 16.22678448 13.28945128 21 14 C21 14.33 21 14.66 21 15 C13.81305456 15.46786625 8.77750814 15.57386061 3 11 C0.52540066 7.24818809 -0.39543833 4.48163441 0 0 Z " fill="#E4E4E4" transform="translate(237,175)" /><path d="M0 0 C0.33 0 0.66 0 1 0 C2.22194735 6.22082289 2.03968424 10.37310361 -1 16 C-3.24704356 19.34157122 -5.06303831 21.68767944 -9 23 C-9.33 22.34 -9.66 21.68 -10 21 C-9.071875 20.34 -8.14375 19.68 -7.1875 19 C-1.37157185 14.13053186 -0.64216737 7.19227456 0 0 Z " fill="#D3D3D3" transform="translate(130,166)" /><path d="M0 0 C4.52634498 1.57298514 6.77244527 5.14137535 9.5625 8.8125 C10.28469727 9.73772461 10.28469727 9.73772461 11.02148438 10.68164062 C13.58838474 14.00413477 15.92819253 17.33771406 18 21 C14.92249811 19.65860969 13.13322482 18.28954574 11.0546875 15.6640625 C10.53519531 15.01179687 10.01570313 14.35953125 9.48046875 13.6875 C8.95066406 13.006875 8.42085937 12.32625 7.875 11.625 C7.33746094 10.95210937 6.79992187 10.27921875 6.24609375 9.5859375 C3.79780861 6.48436929 1.68451149 3.59131921 0 0 Z " fill="#E2E2E2" transform="translate(74,168)" /><path d="M0 0 C3.19072502 2.90677291 5.54722245 5.72656313 7 9.8125 C7 10.534375 7 11.25625 7 12 C6.34 12.66 5.68 13.32 5 14 C4.773125 12.948125 4.54625 11.89625 4.3125 10.8125 C3.18914491 6.82822618 1.16258237 4.68819502 -2 2 C-4.43387753 0.78306124 -6.41838846 0.68040104 -9.125 0.4375 C-10.03507813 0.35371094 -10.94515625 0.26992187 -11.8828125 0.18359375 C-12.58148438 0.12300781 -13.28015625 0.06242188 -14 0 C-14 -0.33 -14 -0.66 -14 -1 C-8.72387851 -1.90967612 -4.9103743 -2.56193442 0 0 Z " fill="#DADADA" transform="translate(187,149)" /><path d="M0 0 C11.81521135 -0.68826474 11.81521135 -0.68826474 15.625 1.75 C18.79176457 4.75009275 19.92657806 6.38471733 20.125 10.75 C20.08375 11.4925 20.0425 12.235 20 13 C19.34 13 18.68 13 18 13 C17.7525 11.906875 17.505 10.81375 17.25 9.6875 C15.90607913 5.72293343 15.47660576 5.02018983 12 3 C8.96731113 2.21371974 8.96731113 2.21371974 5.75 1.8125 C4.67234375 1.65394531 3.5946875 1.49539062 2.484375 1.33203125 C1.66453125 1.22246094 0.8446875 1.11289063 0 1 C0 0.67 0 0.34 0 0 Z " fill="#E5E5E5" transform="translate(248,147)" /><path d="M0 0 C0.66 0 1.32 0 2 0 C0.25477062 4.05214179 -2.4228157 7.30603961 -5.125 10.75 C-5.59292969 11.35199219 -6.06085938 11.95398438 -6.54296875 12.57421875 C-7.69225007 14.05186616 -8.84571235 15.52626005 -10 17 C-10.66 16.34 -11.32 15.68 -12 15 C-10.05153583 12.49216387 -8.08965936 9.99516234 -6.125 7.5 C-5.56941406 6.78457031 -5.01382813 6.06914062 -4.44140625 5.33203125 C-3.90644531 4.65527344 -3.37148437 3.97851562 -2.8203125 3.28125 C-2.32805176 2.65283203 -1.83579102 2.02441406 -1.32861328 1.37695312 C-0.8901709 0.92255859 -0.45172852 0.46816406 0 0 Z " fill="#D3D3D3" transform="translate(89,147)" /><path d="M0 0 C2.125 0.9375 2.125 0.9375 4 2 C2.2984375 2.7115625 2.2984375 2.7115625 0.5625 3.4375 C-2.75740166 4.63622083 -2.75740166 4.63622083 -4 6 C-4.27953219 8.0587768 -4.44734351 10.11728432 -4.62109375 12.1875 C-4.74613281 12.785625 -4.87117187 13.38375 -5 14 C-5.99 14.495 -5.99 14.495 -7 15 C-7.78512397 6.99173554 -7.78512397 6.99173554 -4.625 3 C-2 1 -2 1 0 0 Z " fill="#D1D1D1" transform="translate(246,147)" /><path d="M0 0 C0.66 0 1.32 0 2 0 C2.20302734 0.90492188 2.20302734 0.90492188 2.41015625 1.828125 C3.65124811 6.70023892 3.65124811 6.70023892 6.7578125 10.48828125 C8.87567532 11.70869103 8.87567532 11.70869103 12 13 C9.28410714 14.10647487 8.21281952 14.08305152 5.4375 13 C2.23346865 10.3710512 1.29943541 7.89830622 0 4 C0 2.68 0 1.36 0 0 Z " fill="#DFDFDF" transform="translate(199,175)" /><path d="M0 0 C3.66951355 1.61458596 5.09227976 2.9350119 7.125 6.375 C7.375 9.6875 7.375 9.6875 7.125 12.375 C6.465 12.375 5.805 12.375 5.125 12.375 C4.8775 11.281875 4.63 10.18875 4.375 9.0625 C2.77234397 4.33466472 1.10191837 3.41837358 -3.125 1.1875 C-3.7025 0.919375 -4.28 0.65125 -4.875 0.375 C-2.875 -0.625 -2.875 -0.625 0 0 Z " fill="#D7D7D7" transform="translate(222.875,147.625)" /><path d="M0 0 C-2.48164066 1.29045314 -4.85169075 2.30417527 -7.5 3.25 C-11.52037165 5.26018582 -12.72784412 7.21307353 -15 11 C-15.66 11 -16.32 11 -17 11 C-15.60466338 6.56029258 -13.43871468 4.09484321 -10 1 C-6.78548731 -0.60725635 -3.56387464 -0.05748185 0 0 Z " fill="#DBDBDB" transform="translate(158,147)" /><path d="M0 0 C0.5775 0.37125 1.155 0.7425 1.75 1.125 C0.6775 1.5375 -0.395 1.95 -1.5 2.375 C-4.78799309 3.77654857 -6.88042894 5.40438138 -9.25 8.125 C-9.91 8.785 -10.57 9.445 -11.25 10.125 C-11.58 9.465 -11.91 8.805 -12.25 8.125 C-11.3419838 6.99300647 -10.42316174 5.86967637 -9.5 4.75 C-8.98953125 4.12351563 -8.4790625 3.49703125 -7.953125 2.8515625 C-5.40821659 0.27163241 -3.54035691 -1.37680546 0 0 Z " fill="#DADADA" transform="translate(110.25,147.875)" /><path d="M0 0 C0.99 0.33 1.98 0.66 3 1 C-0.29600584 3.91931946 -2.56065277 5.6902781 -7 6 C-9.69686069 5.77861591 -12.32109819 5.40864604 -15 5 C-15 4.67 -15 4.34 -15 4 C-14.08476562 3.87882813 -13.16953125 3.75765625 -12.2265625 3.6328125 C-11.03804687 3.46523437 -9.84953125 3.29765625 -8.625 3.125 C-7.44164062 2.96257812 -6.25828125 2.80015625 -5.0390625 2.6328125 C-1.90433341 2.2697415 -1.90433341 2.2697415 0 0 Z " fill="#CACACA" transform="translate(265,184)" /><path d="M0 0 C3.3666837 0.30606215 5.56154387 0.7000037 8.375 2.625 C10.57205971 5.83608727 10.29257019 8.19658751 10 12 C9.67 12 9.34 12 9 12 C8.731875 11.071875 8.46375 10.14375 8.1875 9.1875 C6.48130039 4.60770106 3.88206871 2.8111532 0 0 Z " fill="#EDEDED" transform="translate(221,169)" /><path d="M0 0 C0.99 0.33 1.98 0.66 3 1 C0.36 4.3 -2.28 7.6 -5 11 C-5.66 10.34 -6.32 9.68 -7 9 C-4.69 6.03 -2.38 3.06 0 0 Z " fill="#D6D6D6" transform="translate(67,175)" /><path d="M0 0 C0 0.99 0 1.98 0 3 C-0.55171875 2.68289062 -1.1034375 2.36578125 -1.671875 2.0390625 C-4.28477989 0.87290025 -6.40579002 0.59954289 -9.25 0.375 C-10.14203125 0.30023438 -11.0340625 0.22546875 -11.953125 0.1484375 C-12.96632812 0.07496094 -12.96632812 0.07496094 -14 0 C-14 -0.33 -14 -0.66 -14 -1 C-8.58264203 -1.93402724 -5.19548425 -2.20808081 0 0 Z " fill="#B8B8B8" transform="translate(187,149)" /><path d="M0 0 C0.33 0 0.66 0 1 0 C1.33 2.97 1.66 5.94 2 9 C1.01 9.495 1.01 9.495 0 10 C-1.125 2.25 -1.125 2.25 0 0 Z " fill="#D1D1D1" transform="translate(159,169)" /><path d="M0 0 C2.97 0.33 5.94 0.66 9 1 C8.67 1.66 8.34 2.32 8 3 C5.6568787 2.74438677 3.32156597 2.40729228 1 2 C0.67 1.34 0.34 0.68 0 0 Z " fill="#CECECE" transform="translate(213,167)" /><path d="M0 0 C0.66 0 1.32 0 2 0 C1.71125 0.53625 1.4225 1.0725 1.125 1.625 C-0.16711808 4.35280484 -1.08558592 7.12612718 -2 10 C-2.33 10 -2.66 10 -3 10 C-3.2295711 6.63295715 -3.33943529 4.58629732 -1.625 1.625 C-1.08875 1.08875 -0.5525 0.5525 0 0 Z " fill="#161616" transform="translate(206,150)" /></svg>