<svg version="1.1" xmlns="http://www.w3.org/2000/svg" width="61" height="55" viewBox="0 0 419 383"><path d="M0 0 C138.27 0 276.54 0 419 0 C419 126.39 419 252.78 419 383 C280.73 383 142.46 383 0 383 C0 256.61 0 130.22 0 0 Z " fill="#FEFEFE" transform="translate(0,0)" /><path d="M0 0 C8.79170164 6.82204741 15.69167514 14.69831656 20 25 C20.45052734 26.07121094 20.45052734 26.07121094 20.91015625 27.1640625 C25.60537739 40.22332874 23.60577805 53.64180747 18 66 C10.33751079 79.70692851 -0.8848887 88.60930933 -15.859375 93.046875 C-27.07875849 95.92941001 -38.48789369 94.74136546 -49 90 C-49.78632812 89.649375 -50.57265625 89.29875 -51.3828125 88.9375 C-63.90124368 82.6564753 -72.68293579 72.05434354 -77.4375 59 C-81.23967609 45.19036475 -80.22663252 30.6899697 -73.421875 18.07421875 C-65.90259575 5.55902199 -55.0841959 -3.02241442 -40.9375 -7 C-26.79108694 -9.89315752 -12.23939847 -7.87935716 0 0 Z " fill="#83E72D" transform="translate(80,138)" /><path d="M0 0 C8.79170164 6.82204741 15.69167514 14.69831656 20 25 C20.45052734 26.07121094 20.45052734 26.07121094 20.91015625 27.1640625 C25.60537739 40.22332874 23.60577805 53.64180747 18 66 C10.33751079 79.70692851 -0.8848887 88.60930933 -15.859375 93.046875 C-27.07875849 95.92941001 -38.48789369 94.74136546 -49 90 C-49.78632812 89.649375 -50.57265625 89.29875 -51.3828125 88.9375 C-63.90124368 82.6564753 -72.68293579 72.05434354 -77.4375 59 C-81.23967609 45.19036475 -80.22663252 30.6899697 -73.421875 18.07421875 C-65.90259575 5.55902199 -55.0841959 -3.02241442 -40.9375 -7 C-26.79108694 -9.89315752 -12.23939847 -7.87935716 0 0 Z M-66.2109375 15.54296875 C-73.39761696 25.41288443 -76.17042133 36.95929052 -75 49 C-72.21077995 62.42312149 -65.83500281 73.70559574 -54.58203125 81.72265625 C-52.10588888 83.28512128 -49.61073935 84.67607057 -47 86 C-46.00806641 86.51240234 -46.00806641 86.51240234 -44.99609375 87.03515625 C-34.83416693 91.31072233 -20.78047377 90.28670017 -10.7421875 86.32421875 C3.51748005 79.43813998 10.89980013 70.42335393 17 56 C19.97228719 45.15285997 18.68620456 32.28766878 13.640625 22.3125 C6.76259882 10.40004229 -2.19212433 2.52573268 -15.24609375 -2.11328125 C-35.51219773 -6.90038385 -52.85040942 -0.07980014 -66.2109375 15.54296875 Z " fill="#1A3A49" transform="translate(80,138)" /><path d="M0 0 C0.9796875 0.0515625 1.959375 0.103125 2.96875 0.15625 C4.49242187 0.25292969 4.49242187 0.25292969 6.046875 0.3515625 C7.59375 0.43664062 7.59375 0.43664062 9.171875 0.5234375 C11.71426705 0.6646815 14.25563738 0.81606996 16.796875 0.9765625 C16.796875 1.9665625 16.796875 2.9565625 16.796875 3.9765625 C15.146875 4.6365625 13.496875 5.2965625 11.796875 5.9765625 C12.126875 6.6365625 12.456875 7.2965625 12.796875 7.9765625 C12.92049134 12.47089959 12.35797763 16.03471165 10.046875 19.9140625 C5.02748999 23.09944145 -0.36513676 23.40387551 -6.203125 23.9765625 C-6.203125 25.9565625 -6.203125 27.9365625 -6.203125 29.9765625 C-5.25050781 29.95335937 -4.29789063 29.93015625 -3.31640625 29.90625 C-2.06214844 29.88820312 -0.80789062 29.87015625 0.484375 29.8515625 C1.72574219 29.82835937 2.96710938 29.80515625 4.24609375 29.78125 C8.99598342 30.04252006 11.68040599 30.94823578 15.171875 34.1640625 C16.796875 36.9765625 16.796875 36.9765625 16.796875 40.4765625 C15.69874206 44.32002778 14.69336026 46.23664401 11.796875 48.9765625 C7.38294822 50.79818308 3.55375198 51.27341488 -1.203125 51.2890625 C-2.37875 51.30582031 -3.554375 51.32257813 -4.765625 51.33984375 C-8.58043881 50.93668729 -10.95571464 49.99203376 -14.203125 47.9765625 C-16.54481264 44.46403104 -16.69936177 43.11186894 -16.203125 38.9765625 C-14.39802362 36.32908048 -12.46232234 34.23575984 -10.203125 31.9765625 C-10.533125 31.6465625 -10.863125 31.3165625 -11.203125 30.9765625 C-11.4663496 27.02819345 -11.29309873 24.37276981 -9.203125 20.9765625 C-9.863125 20.3371875 -10.523125 19.6978125 -11.203125 19.0390625 C-13.87151628 14.95308835 -14.06721689 11.73770879 -13.203125 6.9765625 C-9.88764733 1.41129641 -6.35197182 -0.36930069 0 0 Z " fill="#18384A" transform="translate(254.203125,166.0234375)" /><path d="M0 0 C0.88945312 0.04833984 1.77890625 0.09667969 2.6953125 0.14648438 C3.61570312 0.20255859 4.53609375 0.25863281 5.484375 0.31640625 C6.42023438 0.36861328 7.35609375 0.42082031 8.3203125 0.47460938 C10.62536387 0.6039745 12.92994789 0.73892659 15.234375 0.87890625 C15.234375 1.86890625 15.234375 2.85890625 15.234375 3.87890625 C13.254375 3.87890625 11.274375 3.87890625 9.234375 3.87890625 C10.224375 5.36390625 10.224375 5.36390625 11.234375 6.87890625 C11.91781206 10.65579529 12.08544595 14.35077514 10.18359375 17.765625 C7.68361615 20.81132042 5.78249462 22.67333627 1.8515625 23.1953125 C0.94664062 23.27652344 0.04171875 23.35773438 -0.890625 23.44140625 C-1.80070312 23.52519531 -2.71078125 23.60898438 -3.6484375 23.6953125 C-4.34710938 23.75589844 -5.04578125 23.81648438 -5.765625 23.87890625 C-6.095625 25.52890625 -6.425625 27.17890625 -6.765625 28.87890625 C-5.82460938 28.91628906 -4.88359375 28.95367187 -3.9140625 28.9921875 C-2.04621094 29.09080078 -2.04621094 29.09080078 -0.140625 29.19140625 C1.08914063 29.24941406 2.31890625 29.30742187 3.5859375 29.3671875 C7.43331606 29.90680912 9.94054718 30.84561958 13.234375 32.87890625 C15.70188739 36.58017484 15.54158656 38.50114157 15.234375 42.87890625 C14.3590518 46.28294092 13.14975195 46.9364759 10.1796875 48.95703125 C6.00947511 51.27155534 2.37039942 51.51240617 -2.328125 51.44140625 C-3.05708984 51.46525391 -3.78605469 51.48910156 -4.53710938 51.51367188 C-8.49945165 51.50297248 -11.07429309 51.04947374 -14.25 48.58984375 C-16.765625 45.87890625 -16.765625 45.87890625 -17.453125 41.94140625 C-17.23329527 38.68670503 -16.41308449 37.11905952 -14.203125 34.75390625 C-13.39875 33.80515625 -12.594375 32.85640625 -11.765625 31.87890625 C-11.99845649 28.72968716 -11.99845649 28.72968716 -12.765625 25.87890625 C-12.105625 24.88890625 -11.445625 23.89890625 -10.765625 22.87890625 C-10.105625 22.87890625 -9.445625 22.87890625 -8.765625 22.87890625 C-8.765625 22.21890625 -8.765625 21.55890625 -8.765625 20.87890625 C-9.384375 20.65203125 -10.003125 20.42515625 -10.640625 20.19140625 C-13.54033177 18.40041089 -13.97481293 17.18593856 -14.765625 13.87890625 C-14.93307987 9.28320043 -14.33428037 6.60125226 -11.453125 2.94140625 C-7.59581859 -0.01885215 -4.77148881 -0.2752782 0 0 Z " fill="#1C3B4C" transform="translate(290.765625,166.12109375)" /><path d="M0 0 C2.58348772 2.21441805 3.46678672 3.15476337 4.625 6.25 C4.85205078 9.27441406 4.85205078 9.27441406 4.8203125 12.765625 C4.81386719 14.01601562 4.80742187 15.26640625 4.80078125 16.5546875 C4.78402344 17.85664063 4.76726562 19.15859375 4.75 20.5 C4.74097656 21.81742188 4.73195312 23.13484375 4.72265625 24.4921875 C4.69908533 27.74497462 4.66618022 30.99739589 4.625 34.25 C2.975 33.92 1.325 33.59 -0.375 33.25 C-0.705 32.26 -1.035 31.27 -1.375 30.25 C-2.15875 30.91 -2.9425 31.57 -3.75 32.25 C-8.01250836 35.09504715 -12.42651548 34.95103531 -17.375 34.25 C-21.88815789 32.22368421 -21.88815789 32.22368421 -23.375 29.25 C-23.85630203 24.72102684 -24.28470392 20.64954449 -21.75 16.75 C-16.81220293 13.63139132 -12.26771941 13.00729144 -6.5 13.125 C-5.34757812 13.14304688 -4.19515625 13.16109375 -3.0078125 13.1796875 C-2.13898438 13.20289063 -1.27015625 13.22609375 -0.375 13.25 C-1.035 10.28 -1.695 7.31 -2.375 4.25 C-4.291588 4.22287847 -6.2082873 4.20354903 -8.125 4.1875 C-9.19234375 4.17589844 -10.2596875 4.16429687 -11.359375 4.15234375 C-13.90868501 4.23489913 -15.95433591 4.50382442 -18.375 5.25 C-18.705 3.93 -19.035 2.61 -19.375 1.25 C-13.51116712 -2.65922192 -6.25113544 -3.24132949 0 0 Z " fill="#254453" transform="translate(230.375,167.75)" /><path d="M0 0 C1.65 0 3.3 0 5 0 C8.08718243 8.48975169 10.01048222 17.20370565 12 26 C12.33 26 12.66 26 13 26 C13.17128418 25.39003174 13.34256836 24.78006348 13.51904297 24.15161133 C14.30154704 21.37110649 15.08823266 18.59180137 15.875 15.8125 C16.14441406 14.85279297 16.41382813 13.89308594 16.69140625 12.90429688 C16.95566406 11.97294922 17.21992188 11.04160156 17.4921875 10.08203125 C17.73308105 9.22843018 17.97397461 8.3748291 18.22216797 7.49536133 C19.02057571 4.9339911 19.97190736 2.47712132 21 0 C22.98 0 24.96 0 27 0 C35 18.85106383 35 18.85106383 35 26 C35.66 26 36.32 26 37 26 C37.11214844 24.8759375 37.22429687 23.751875 37.33984375 22.59375 C37.94523424 17.75062611 39.20245056 13.17826532 40.5625 8.5 C40.91344727 7.26636719 40.91344727 7.26636719 41.27148438 6.0078125 C41.84242072 4.00370942 42.42046705 2.00163409 43 0 C44.98 0 46.96 0 49 0 C46.10281767 11.69559261 43.15399503 23.37074459 40 35 C37.69 35 35.38 35 33 35 C31.65430981 31.10832482 30.32564 27.21104602 29 23.3125 C28.6184375 22.20970703 28.236875 21.10691406 27.84375 19.97070312 C27.4828125 18.90400391 27.121875 17.83730469 26.75 16.73828125 C26.41484375 15.75899658 26.0796875 14.77971191 25.734375 13.77075195 C25.01186262 11.04475696 24.85677262 8.80412361 25 6 C24.34 6 23.68 6 23 6 C23.05414063 7.31121826 23.05414063 7.31121826 23.109375 8.64892578 C22.99848646 12.04637257 22.39440915 14.43429956 21.25 17.6171875 C20.8890625 18.63554687 20.528125 19.65390625 20.15625 20.703125 C19.7746875 21.74984375 19.393125 22.7965625 19 23.875 C18.6184375 24.94492188 18.236875 26.01484375 17.84375 27.1171875 C16.90420064 29.74792571 15.95607866 32.37523351 15 35 C13.02 35 11.04 35 9 35 C6.99163026 28.00237598 4.99244532 21.00217422 3 14 C2.64808594 12.76636719 2.29617187 11.53273437 1.93359375 10.26171875 C1.66675781 9.30910156 1.39992187 8.35648438 1.125 7.375 C0.90070313 6.57835937 0.67640625 5.78171875 0.4453125 4.9609375 C0 3 0 3 0 0 Z " fill="#1B3B4C" transform="translate(157,167)" /><path d="M0 0 C3.10930466 2.46153285 4.81074804 4.71612206 7 8 C7 11.3 7 14.6 7 18 C-0.92 18 -8.84 18 -17 18 C-14.32872768 27.88927269 -14.32872768 27.88927269 -9 30 C-3.99750324 30.47991432 1.13112211 30.29836744 6 29 C6 30.32 6 31.64 6 33 C-0.05610994 35.77294411 -6.74746023 36.19555388 -13.1953125 34.3828125 C-17.32687443 32.36174541 -19.57016937 29.44133283 -21.34375 25.34375 C-22.91931163 19.71674418 -22.88223447 13.64188995 -20.875 8.125 C-15.8892082 -0.184653 -9.2109106 -2.17765938 0 0 Z " fill="#163749" transform="translate(330,167)" /><path d="M0 0 C1.96453125 0.00966797 1.96453125 0.00966797 3.96875 0.01953125 C6.70519436 0.14969398 8.91465687 0.36309211 11.5 1.1875 C11.5 2.8375 11.5 4.4875 11.5 6.1875 C10.530625 6.0225 9.56125 5.8575 8.5625 5.6875 C0.6189114 4.57107991 0.6189114 4.57107991 -7.0625 6.25 C-8.78097812 8.25691653 -8.78097812 8.25691653 -9.0625 11.625 C-8.85573767 15.26418696 -8.85573767 15.26418696 -6.33984375 17.26171875 C-3.43800685 19.22953937 -0.7907961 20.37882079 2.5 21.5625 C7.7915136 23.70647534 10.72810502 25.13869128 13.5 30.1875 C14.26075714 34.05214628 13.87751239 37.26469193 12.375 40.9375 C9.66583192 44.18850169 6.76417933 46.79382425 2.46679688 47.54101562 C0.23559312 47.65167046 -1.95496147 47.63569798 -4.1875 47.5625 C-4.94611328 47.56121094 -5.70472656 47.55992187 -6.48632812 47.55859375 C-10.31855154 47.49771112 -12.24842281 47.35521812 -15.5 45.1875 C-15.6875 42.5625 -15.6875 42.5625 -15.5 40.1875 C-14.82066406 40.34605469 -14.14132813 40.50460938 -13.44140625 40.66796875 C-10.07465637 41.2626271 -6.8557949 41.43053732 -3.4375 41.5 C-1.62572266 41.55607422 -1.62572266 41.55607422 0.22265625 41.61328125 C3.56724329 41.45818154 3.56724329 41.45818154 5.9140625 39.328125 C7.86586294 36.69367515 7.91170797 35.39882213 7.5 32.1875 C7.17 31.1975 6.84 30.2075 6.5 29.1875 C4.25092492 28.06062059 4.25092492 28.06062059 1.5 27.1875 C-0.52547428 26.42894524 -2.5461812 25.65756621 -4.5625 24.875 C-5.58472656 24.48699219 -6.60695312 24.09898437 -7.66015625 23.69921875 C-11.57178205 21.61696402 -13.83696809 19.17314244 -15.25 14.94140625 C-15.7310217 10.7249504 -15.73582994 8.66789433 -13.8125 4.75 C-9.55148452 0.0283342 -6.28765057 -0.06807496 0 0 Z " fill="#1B3A4B" transform="translate(142.5,154.8125)" /><path d="M0 0 C4.18826916 -0.41061462 6.27312491 -0.55069492 9.69140625 2.0390625 C12.60017371 5.76976594 12.65825031 8.00367856 12.75 12.6875 C12.675134 17.49042725 12.675134 17.49042725 14 22 C16.02463255 22.65213292 16.02463255 22.65213292 18 23 C18.3125 25.8125 18.3125 25.8125 18 29 C17.18144531 29.43054688 16.36289063 29.86109375 15.51953125 30.3046875 C12.68889821 31.78215566 12.68889821 31.78215566 12.3984375 34.92578125 C12.39070313 36.04339844 12.38296875 37.16101563 12.375 38.3125 C12.17551901 43.42491278 11.92536544 46.78747377 9 51 C6.04335481 52.4783226 3.25770263 52.06032783 0 52 C0 50.02 0 48.04 0 46 C2.475 45.505 2.475 45.505 5 45 C5.03738281 44.03578125 5.07476562 43.0715625 5.11328125 42.078125 C5.17902344 40.81484375 5.24476562 39.5515625 5.3125 38.25 C5.37050781 36.99703125 5.42851563 35.7440625 5.48828125 34.453125 C6.00455901 30.96923537 6.6253256 29.52110204 9 27 C8.690625 26.38125 8.38125 25.7625 8.0625 25.125 C6.0895996 21.1791992 5.72197277 18.34528633 5.4375 13.875 C5.35371094 12.59367188 5.26992187 11.31234375 5.18359375 9.9921875 C5.12300781 9.00476563 5.06242187 8.01734375 5 7 C3.35 6.67 1.7 6.34 0 6 C0 4.02 0 2.04 0 0 Z " fill="#1A3B46" transform="translate(65,155)" /><path d="M0 0 C0 1.98 0 3.96 0 6 C-1.32 6.33 -2.64 6.66 -4 7 C-4.12117188 7.96421875 -4.24234375 8.9284375 -4.3671875 9.921875 C-4.53476562 11.18515625 -4.70234375 12.4484375 -4.875 13.75 C-5.03742187 15.00296875 -5.19984375 16.2559375 -5.3671875 17.546875 C-5.9058355 20.48616408 -6.48008841 22.47107147 -8 25 C-8.66 25 -9.32 25 -10 25 C-10 25.66 -10 26.32 -10 27 C-9.34 27 -8.68 27 -8 27 C-4.56559678 32.95296558 -4.86673563 39.33678156 -5 46 C-3.35 46 -1.7 46 0 46 C0 47.98 0 49.96 0 52 C-3.25 52.3125 -3.25 52.3125 -7 52 C-12.50079194 46.64396574 -12.19079023 41.20210904 -12.42578125 33.93359375 C-12.66858082 30.87664854 -12.66858082 30.87664854 -15.04296875 29.59765625 C-15.68878906 29.40042969 -16.33460937 29.20320313 -17 29 C-17 27.02 -17 25.04 -17 23 C-16.360625 22.84273437 -15.72125 22.68546875 -15.0625 22.5234375 C-12.56240235 21.04062833 -12.56240235 21.04062833 -12.3125 17.2265625 C-12.19011221 15.69405458 -12.08669102 14.15994103 -12 12.625 C-11.55138852 4.76110467 -11.55138852 4.76110467 -9.171875 1.4765625 C-6.09423817 -0.61578772 -3.62762362 -0.27904797 0 0 Z " fill="#193A46" transform="translate(38,155)" /><path d="M0 0 C0.72445312 -0.01611328 1.44890625 -0.03222656 2.1953125 -0.04882812 C7.46327321 -0.05368787 7.46327321 -0.05368787 10.00390625 1.6796875 C11 3.3125 11 3.3125 10.9375 5.75 C9.77005358 8.94102021 8.69532771 10.22776433 6 12.3125 C2.43359375 12.80859375 2.43359375 12.80859375 -1.5625 12.75 C-2.23474609 12.75708984 -2.90699219 12.76417969 -3.59960938 12.77148438 C-6.48223398 12.73427075 -8.53686389 12.6188118 -10.97265625 11.0078125 C-12 9.3125 -12 9.3125 -11.875 5.75 C-10.2302527 -0.71150725 -5.69720933 -0.02534346 0 0 Z " fill="#F7F8F8" transform="translate(255,200.6875)" /><path d="M0 0 C-0.33 1.65 -0.66 3.3 -1 5 C-2.216875 5.04125 -3.43375 5.0825 -4.6875 5.125 C-8.03208876 5.23837589 -9.09524892 6.07992151 -11.71875 8.28125 C-15.34527761 12.96979717 -14.7824267 18.70117077 -14.8125 24.375 C-14.83763672 25.49261719 -14.86277344 26.61023438 -14.88867188 27.76171875 C-14.94735666 30.50816665 -14.98377396 33.25302751 -15 36 C-16.65 36 -18.3 36 -20 36 C-20 24.45 -20 12.9 -20 1 C-18.68 1 -17.36 1 -16 1 C-16 2.98 -16 4.96 -16 7 C-15.34 7 -14.68 7 -14 7 C-13.71125 6.38125 -13.4225 5.7625 -13.125 5.125 C-11.855924 2.72785644 -10.85295078 1.30462528 -8.25 0.375 C-5.47557223 -0.08740463 -2.80738692 -0.06380425 0 0 Z " fill="#183849" transform="translate(364,166)" /><path d="M0 0 C0.72445313 -0.00322266 1.44890625 -0.00644531 2.1953125 -0.00976562 C5.9807029 0.02864701 7.78295894 0.16780596 11 2.3125 C10.51295492 8.76584731 10.51295492 8.76584731 8.39453125 11.0234375 C5.13646909 12.77736982 2.61887322 12.67532371 -1.0625 12.625 C-2.29097656 12.62113281 -3.51945312 12.61726562 -4.78515625 12.61328125 C-8 12.3125 -8 12.3125 -11 10.3125 C-11.64630565 4.38803154 -11.64630565 4.38803154 -9.9765625 1.609375 C-6.86250895 -0.433838 -3.59519785 -0.07996437 0 0 Z " fill="#F9F9FA" transform="translate(290,200.6875)" /><path d="M0 0 C1.90625 0.4140625 1.90625 0.4140625 4.40625 1.9765625 C6.47476618 5.3379013 6.39130011 7.53366161 5.90625 11.4140625 C4.96875 13.8515625 4.96875 13.8515625 2.90625 15.4140625 C-1.440281 16.21257293 -4.88500976 16.1805807 -8.65625 13.7890625 C-10.54420796 10.66982761 -10.68050681 9.00794798 -10.09375 5.4140625 C-7.58590691 0.60736325 -5.16868613 -0.3664367 0 0 Z " fill="#F5F6F7" transform="translate(291.09375,169.5859375)" /><path d="M0 0 C1.90625 0.44921875 1.90625 0.44921875 4.40625 2.57421875 C6.16209708 5.93959231 6.54281938 7.70937366 5.90625 11.44921875 C4.46875 13.82421875 4.46875 13.82421875 1.90625 15.44921875 C-1.19695389 15.99816095 -3.99264833 16.01892872 -7.09375 15.44921875 C-9.15625 13.88671875 -9.15625 13.88671875 -10.09375 11.44921875 C-10.57880011 7.56881786 -10.66226618 5.37305755 -8.59375 2.01171875 C-5.56188683 0.11680427 -3.53294544 -0.19114817 0 0 Z " fill="#F6F7F8" transform="translate(256.09375,169.55078125)" /><path d="M0 0 C8.625 -0.25 8.625 -0.25 12 2 C12.1875 4.4375 12.1875 4.4375 12 7 C12 8.85463477 12.03463746 10.71006788 12.125 12.5625 C12 15 12 15 10 17 C7.6171875 17.1953125 7.6171875 17.1953125 4.875 17.125 C3.26625 17.08375 1.6575 17.0425 0 17 C0 11.39 0 5.78 0 0 Z " fill="#3F5764" transform="translate(348,226)" /><path d="M0 0 C0.32470459 4.13998349 0.4304413 6.33999001 -1.875 9.875 C-4.86138891 12.86138891 -5.58222969 12.9734749 -9.9375 13.25 C-12.50031874 13.20348786 -13.74172718 13.14527846 -16 11.875 C-17.52364827 9.01815949 -17.51955068 7.18224791 -17 4 C-12.84014814 -1.64551323 -6.31803718 -0.36275812 0 0 Z " fill="#F7F8F8" transform="translate(229,185)" /><path d="M0 0 C8.625 -0.25 8.625 -0.25 12 2 C12.26518132 6.17660573 12.31886422 9.04340734 11 13 C11.38932856 15.14255793 11.38932856 15.14255793 12 17 C11.01 17 10.02 17 9 17 C8.7525 16.360625 8.505 15.72125 8.25 15.0625 C7.18437567 12.81258459 7.18437567 12.81258459 4.875 12.25 C4.25625 12.1675 3.6375 12.085 3 12 C3 13.65 3 15.3 3 17 C2.01 17 1.02 17 0 17 C0 11.39 0 5.78 0 0 Z " fill="#224152" transform="translate(313,226)" /><path d="M0 0 C8.625 -0.25 8.625 -0.25 12 2 C12.2393833 5.23167454 12.24715163 8.03885477 11.4375 11.1875 C10.89978278 13.41518561 11.30718474 14.84457475 12 17 C11.01 17 10.02 17 9 17 C8.7525 16.360625 8.505 15.72125 8.25 15.0625 C7.18437567 12.81258459 7.18437567 12.81258459 4.875 12.25 C4.25625 12.1675 3.6375 12.085 3 12 C3 13.65 3 15.3 3 17 C2.01 17 1.02 17 0 17 C0 11.39 0 5.78 0 0 Z " fill="#173749" transform="translate(404,226)" /><path d="M0 0 C1.65 0 3.3 0 5 0 C5.99 3.63 6.98 7.26 8 11 C8.7115625 8.5559375 8.7115625 8.5559375 9.4375 6.0625 C10.875 1.125 10.875 1.125 12 0 C13.65 0 15.3 0 17 0 C17 5.61 17 11.22 17 17 C16.01 17 15.02 17 14 17 C13.67 13.37 13.34 9.74 13 6 C12.01 9.3 11.02 12.6 10 16 C8.68 15.67 7.36 15.34 6 15 C4.51818994 11.76545193 3.87739543 8.46571194 3 5 C2.67 8.96 2.34 12.92 2 17 C1.34 17 0.68 17 0 17 C0 11.39 0 5.78 0 0 Z " fill="#1B3B4D" transform="translate(270,226)" /><path d="M0 0 C-0.33 0.66 -0.66 1.32 -1 2 C-1.66 2 -2.32 2 -3 2 C-3 2.66 -3 3.32 -3 4 C-3.66 4.4125 -4.32 4.825 -5 5.25 C-7.33316337 6.89898305 -7.33316337 6.89898305 -7.375 10.0625 C-7.28930236 13.11861241 -7.28930236 13.11861241 -5 15 C-2.33757179 15.46290221 -2.33757179 15.46290221 0.625 15.625 C1.62789062 15.69976562 2.63078125 15.77453125 3.6640625 15.8515625 C4.43492187 15.90054688 5.20578125 15.94953125 6 16 C5 19 5 19 3 20 C-1.6730496 20.43008598 -5.74351106 20.56413789 -10.0625 18.625 C-12.36888499 16.69061259 -12.92152455 15.73844116 -13.23828125 12.7578125 C-13.43945879 5.62130381 -13.43945879 5.62130381 -11.1875 2.4375 C-7.41863133 -0.03918512 -4.40296353 -0.09784363 0 0 Z " fill="#173748" transform="translate(220,182)" /><path d="M0 0 C3.29757584 3.53886187 4 5.13975578 4 10 C-1.94 10 -7.88 10 -14 10 C-13 3 -13 3 -11.5 1.0625 C-7.66308684 -0.56818809 -4.08339239 -0.93655789 0 0 Z " fill="#F5F6F7" transform="translate(328,171)" /><path d="M0 0 C4.62 0 9.24 0 14 0 C14 0.99 14 1.98 14 3 C12.02 3 10.04 3 8 3 C8.99 4.485 8.99 4.485 10 6 C10.69039779 9.8153562 10.87062073 13.50750732 8.87890625 16.921875 C7.5 18.5625 7.5 18.5625 5 21 C3.68 20.34 2.36 19.68 1 19 C1.495 18.319375 1.99 17.63875 2.5 16.9375 C4.34319167 13.32791631 4.44505576 11.00550187 4 7 C2.72840348 5.14397385 2.72840348 5.14397385 1 4 C0.34 3.34 -0.32 2.68 -1 2 C-0.67 1.34 -0.34 0.68 0 0 Z " fill="#133346" transform="translate(292,167)" /><path d="M0 0 C1.98 0 3.96 0 6 0 C7.32 5.61 8.64 11.22 10 17 C9.01 17 8.02 17 7 17 C6.67 15.35 6.34 13.7 6 12 C4.02 12.33 2.04 12.66 0 13 C-0.33 14.32 -0.66 15.64 -1 17 C-1.99 17 -2.98 17 -4 17 C-2.07289294 5.47835991 -2.07289294 5.47835991 0 0 Z " fill="#123245" transform="translate(297,226)" /><path d="M0 0 C4.29 0 8.58 0 13 0 C12.67 0.99 12.34 1.98 12 3 C11.01 3.33 10.02 3.66 9 4 C9.33 4.66 9.66 5.32 10 6 C10.13260421 10.82111007 9.66641639 14.13545982 6.6875 18 C4.29328947 19.78173807 2.92161999 20.67537556 0 21 C-0.33 20.34 -0.66 19.68 -1 19 C-3.01669827 17.86649466 -3.01669827 17.86649466 -5 17 C-4.43410156 16.87882812 -3.86820313 16.75765625 -3.28515625 16.6328125 C-2.55167969 16.46523437 -1.81820312 16.29765625 -1.0625 16.125 C-0.33160156 15.96257812 0.39929688 15.80015625 1.15234375 15.6328125 C3.20700294 15.17038477 3.20700294 15.17038477 4 13 C4.64993148 7.41058929 2.92477152 4.56995551 0 0 Z " fill="#1F3E4F" transform="translate(257,168)" /><path d="M0 0 C1.98 0 3.96 0 6 0 C6.50546036 2.08201528 7.00416835 4.16567067 7.5 6.25 C7.7784375 7.41015625 8.056875 8.5703125 8.34375 9.765625 C9 13 9 13 9 17 C8.34 17 7.68 17 7 17 C6.67 15.35 6.34 13.7 6 12 C4.02 12.33 2.04 12.66 0 13 C-0.33 14.32 -0.66 15.64 -1 17 C-1.99 17 -2.98 17 -4 17 C-2.68 11.39 -1.36 5.78 0 0 Z " fill="#16384A" transform="translate(388,226)" /><path d="M0 0 C-0.33 3.3 -0.66 6.6 -1 10 C2.66291938 12.47785723 5.6109185 13.48964169 10 14 C10 14.66 10 15.32 10 16 C10.99 16.33 11.98 16.66 13 17 C0.0203252 17.56707317 0.0203252 17.56707317 -5 14 C-7.34168764 10.48746854 -7.49623677 9.13530644 -7 5 C-3.84782609 0 -3.84782609 0 0 0 Z " fill="#153547" transform="translate(245,200)" /><path d="M0 0 C3.63 0 7.26 0 11 0 C11 0.66 11 1.32 11 2 C8.36 2 5.72 2 3 2 C3 3.65 3 5.3 3 7 C5.31 7 7.62 7 10 7 C10 7.99 10 8.98 10 10 C7.69 10 5.38 10 3 10 C3 11.65 3 13.3 3 15 C5.64 15 8.28 15 11 15 C11 15.66 11 16.32 11 17 C7.37 17 3.74 17 0 17 C0 11.39 0 5.78 0 0 Z " fill="#264254" transform="translate(367,226)" /><path d="M0 0 C0.93585938 0.01804688 1.87171875 0.03609375 2.8359375 0.0546875 C5.14167015 0.10174327 7.44530945 0.16746287 9.75 0.25 C9.75 0.58 9.75 0.91 9.75 1.25 C8.61820312 1.29898438 7.48640625 1.34796875 6.3203125 1.3984375 C4.83851661 1.47346514 3.356747 1.54901297 1.875 1.625 C1.12863281 1.6559375 0.38226563 1.686875 -0.38671875 1.71875 C-4.78473188 1.80643831 -4.78473188 1.80643831 -8.25 4.25 C-8.75007794 7.70786015 -8.75007794 7.70786015 -8.25 11.25 C-6.38875077 13.23239527 -6.38875077 13.23239527 -4.25 14.25 C-4.91 14.25 -5.57 14.25 -6.25 14.25 C-6.25 14.91 -6.25 15.57 -6.25 16.25 C-8.80687669 15.90447612 -10.82501375 15.49912987 -13.0625 14.1875 C-14.62899545 11.631639 -14.66081022 9.23596638 -14.74609375 6.28515625 C-12.9098206 -1.24790133 -6.28545907 -0.22888226 0 0 Z " fill="#143647" transform="translate(288.25,199.75)" /><path d="M0 0 C1.258125 -0.04125 2.51625 -0.0825 3.8125 -0.125 C4.52019531 -0.14820313 5.22789062 -0.17140625 5.95703125 -0.1953125 C8 0 8 0 11 2 C11.1875 4.4375 11.1875 4.4375 11 7 C11 8.85463477 11.03463746 10.71006788 11.125 12.5625 C11 15 11 15 9 17 C6.8359375 17.1953125 6.8359375 17.1953125 4.375 17.125 C3.55773437 17.10695312 2.74046875 17.08890625 1.8984375 17.0703125 C1.27195312 17.04710937 0.64546875 17.02390625 0 17 C0.33 14.69 0.66 12.38 1 10 C1.33 10 1.66 10 2 10 C2 11.65 2 13.3 2 15 C3.98 15 5.96 15 8 15 C7.67 13.35 7.34 11.7 7 10 C5.35 9.67 3.7 9.34 2 9 C2 8.67 2 8.34 2 8 C3.65 7.67 5.3 7.34 7 7 C7 5.68 7 4.36 7 3 C5.35 3 3.7 3 2 3 C1.34 4.32 0.68 5.64 0 7 C0 4.69 0 2.38 0 0 Z " fill="#1A3C4D" transform="translate(349,226)" /><path d="M0 0 C1.8871875 0.061875 1.8871875 0.061875 3.8125 0.125 C3.8125 0.785 3.8125 1.445 3.8125 2.125 C1.5025 2.455 -0.8075 2.785 -3.1875 3.125 C-3.1875 4.115 -3.1875 5.105 -3.1875 6.125 C-2.053125 6.516875 -0.91875 6.90875 0.25 7.3125 C3.8125 9.125 3.8125 9.125 4.9375 11.625 C4.8125 14.125 4.8125 14.125 3.875 15.9375 C0.58031888 17.83443762 -2.42988464 17.30980076 -6.1875 17.125 C-6.1875 16.465 -6.1875 15.805 -6.1875 15.125 C-2.7225 14.63 -2.7225 14.63 0.8125 14.125 C0.8125 13.135 0.8125 12.145 0.8125 11.125 C-0.321875 10.75375 -1.45625 10.3825 -2.625 10 C-4.5625 9.19140625 -4.5625 9.19140625 -6.1875 8.125 C-7.125 4.9375 -7.125 4.9375 -7.1875 2.125 C-4.09861478 0.06574319 -3.47814073 -0.1140374 0 0 Z " fill="#284757" transform="translate(258.1875,225.875)" /><path d="M0 0 C3.96 0 7.92 0 12 0 C12 0.99 12 1.98 12 3 C10.68 3 9.36 3 8 3 C8 7.62 8 12.24 8 17 C7.01 17 6.02 17 5 17 C5 12.05 5 7.1 5 2 C3.35 2 1.7 2 0 2 C0 1.34 0 0.68 0 0 Z " fill="#223E50" transform="translate(330,226)" /><path d="M0 0 C0.66 1.32 1.32 2.64 2 4 C2.804375 3.979375 3.60875 3.95875 4.4375 3.9375 C7 4 7 4 8 5 C8.23529412 10.52941176 8.23529412 10.52941176 7 13 C4.69 13 2.38 13 0 13 C0 8.71 0 4.42 0 0 Z " fill="#84929C" transform="translate(222,230)" /><path d="M0 0 C0.33 0 0.66 0 1 0 C1 4.29 1 8.58 1 13 C-0.98 13 -2.96 13 -5 13 C-7 11 -7 11 -7.25 8.5 C-7 6 -7 6 -5 4 C-2.375 3.875 -2.375 3.875 0 4 C0 2.68 0 1.36 0 0 Z " fill="#334C5B" transform="translate(212,230)" /><path d="M0 0 C1.98 0 3.96 0 6 0 C8 2 8 2 8.25 4.5 C8 7 8 7 6 9 C4.68 9 3.36 9 2 9 C1.34 10.32 0.68 11.64 0 13 C0 8.71 0 4.42 0 0 Z " fill="#86939E" transform="translate(159,234)" /><path d="M0 0 C1.98 0 3.96 0 6 0 C8 2 8 2 8.25 4.5 C8 7 8 7 6 9 C4.68 9 3.36 9 2 9 C1.34 10.32 0.68 11.64 0 13 C0 8.71 0 4.42 0 0 Z " fill="#8B98A1" transform="translate(148,234)" /><path d="M0 0 C2.5625 0.1875 2.5625 0.1875 4.5625 2.1875 C4.8125 4.6875 4.8125 4.6875 4.5625 7.1875 C2.5625 9.1875 2.5625 9.1875 0.0625 9.5 C-1.175 9.3453125 -1.175 9.3453125 -2.4375 9.1875 C-4.4375 6.1875 -4.4375 6.1875 -4.125 3.5625 C-3.16420807 0.24340062 -3.16420807 0.24340062 0 0 Z " fill="#405765" transform="translate(173.4375,233.8125)" /><path d="M0 0 C1.98 0 3.96 0 6 0 C6 0.99 6 1.98 6 3 C4.68 2.67 3.36 2.34 2 2 C1.34 4.64 0.68 7.28 0 10 C1.65 10 3.3 10 5 10 C5.33 10.66 5.66 11.32 6 12 C4.02 12.33 2.04 12.66 0 13 C-0.33 14.32 -0.66 15.64 -1 17 C-1.99 17 -2.98 17 -4 17 C-2.68 11.39 -1.36 5.78 0 0 Z " fill="#0D2E42" transform="translate(388,226)" /><path d="M0 0 C1.32 0.33 2.64 0.66 4 1 C3.68950274 2.43793392 3.3765224 3.8753318 3.0625 5.3125 C2.88847656 6.11300781 2.71445313 6.91351563 2.53515625 7.73828125 C2 10 2 10 1 13 C-1.5625 14.1875 -1.5625 14.1875 -4 15 C-3.43179252 9.54520815 -2.05362055 5.08940744 0 0 Z " fill="#143547" transform="translate(175,177)" /><path d="M0 0 C0.66 0 1.32 0 2 0 C2 0.66 2 1.32 2 2 C2.66 2.33 3.32 2.66 4 3 C3.34 3 2.68 3 2 3 C2 5.31 2 7.62 2 10 C2.66 10.33 3.32 10.66 4 11 C2.68 10.67 1.36 10.34 0 10 C0 7.69 0 5.38 0 3 C-2.53744315 3.54708727 -2.53744315 3.54708727 -5 5 C-5.89830839 8.05272465 -5.89830839 8.05272465 -6 11 C-6.66 11 -7.32 11 -8 11 C-8 8.03 -8 5.06 -8 2 C-2.25 0.875 -2.25 0.875 0 2 C0 1.34 0 0.68 0 0 Z " fill="#546B77" transform="translate(189,232)" /><path d="M0 0 C0.66 0 1.32 0 2 0 C2.66 1.98 3.32 3.96 4 6 C4.66 5.67 5.32 5.34 6 5 C6.66 8.3 7.32 11.6 8 15 C7.01 15 6.02 15 5 15 C4.7525 14.030625 4.505 13.06125 4.25 12.0625 C3.8375 11.051875 3.425 10.04125 3 9 C0.96756452 8.03122943 0.96756452 8.03122943 -1 8 C-0.67 5.36 -0.34 2.72 0 0 Z " fill="#294757" transform="translate(299,228)" /><path d="M0 0 C2.375 -0.125 2.375 -0.125 5 0 C5.66 0.66 6.32 1.32 7 2 C6.44444444 6.55555556 6.44444444 6.55555556 5 8 C3.33382885 8.04063832 1.66611905 8.042721 0 8 C0 5.36 0 2.72 0 0 Z " fill="#E2E5E7" transform="translate(316,228)" /><path d="M0 0 C1.66611905 -0.042721 3.33382885 -0.04063832 5 0 C6 1 6 1 6.125 4 C6 7 6 7 5 8 C3.33382885 8.04063832 1.66611905 8.042721 0 8 C0 5.36 0 2.72 0 0 Z " fill="#E9ECED" transform="translate(407,228)" /><path d="M0 0 C1.21236328 0.02707031 1.21236328 0.02707031 2.44921875 0.0546875 C3.37154297 0.08949219 3.37154297 0.08949219 4.3125 0.125 C4.6425 1.115 4.9725 2.105 5.3125 3.125 C1.3525 4.115 -2.6075 5.105 -6.6875 6.125 C-7.0175 4.805 -7.3475 3.485 -7.6875 2.125 C-4.48369983 -0.01086678 -3.66810033 -0.10632175 0 0 Z " fill="#123446" transform="translate(218.6875,166.875)" /><path d="M0 0 C4.29 0 8.58 0 13 0 C12.01 0.66 11.02 1.32 10 2 C10.99 2.33 11.98 2.66 13 3 C13 4.98 13 6.96 13 9 C12.67 9 12.34 9 12 9 C12 7.35 12 5.7 12 4 C8.04 4 4.08 4 0 4 C0.66 3.34 1.32 2.68 2 2 C1.34 1.34 0.68 0.68 0 0 Z " fill="#304C5B" transform="translate(217,181)" /><path d="M0 0 C1.65 0 3.3 0 5 0 C5 5.61 5 11.22 5 17 C4.34 17 3.68 17 3 17 C3 12.38 3 7.76 3 3 C2.01 3 1.02 3 0 3 C0 2.01 0 1.02 0 0 Z " fill="#143547" transform="translate(282,226)" /><path d="M0 0 C1.2065625 0.0309375 1.2065625 0.0309375 2.4375 0.0625 C3.0625 2.4375 3.0625 2.4375 3.4375 5.0625 C2.7775 5.7225 2.1175 6.3825 1.4375 7.0625 C-0.6875 6.6875 -0.6875 6.6875 -2.5625 6.0625 C-2.94468767 4.40635343 -3.27645102 2.73792976 -3.5625 1.0625 C-2.5625 0.0625 -2.5625 0.0625 0 0 Z " fill="#1A3C45" transform="translate(64.5625,177.9375)" /><path d="M0 0 C-0.33 1.65 -0.66 3.3 -1 5 C-3.64 5 -6.28 5 -9 5 C-9 3.68 -9 2.36 -9 1 C-5.8035914 -0.06546953 -3.34252724 -0.07427838 0 0 Z " fill="#203F50" transform="translate(364,166)" /><path d="M0 0 C0.99 0.33 1.98 0.66 3 1 C3 5.95 3 10.9 3 16 C2.01 16 1.02 16 0 16 C0 10.72 0 5.44 0 0 Z " fill="#294555" transform="translate(404,227)" /><path d="M0 0 C1.2065625 0.0309375 1.2065625 0.0309375 2.4375 0.0625 C2.81968767 1.71864657 3.15145102 3.38707024 3.4375 5.0625 C2.4375 6.0625 2.4375 6.0625 -0.125 6.125 C-1.3315625 6.0940625 -1.3315625 6.0940625 -2.5625 6.0625 C-2.94468767 4.40635343 -3.27645102 2.73792976 -3.5625 1.0625 C-2.5625 0.0625 -2.5625 0.0625 0 0 Z " fill="#153546" transform="translate(51.5625,177.9375)" /><path d="M0 0 C1.2065625 0.0309375 1.2065625 0.0309375 2.4375 0.0625 C2.81968767 1.71864657 3.15145102 3.38707024 3.4375 5.0625 C2.4375 6.0625 2.4375 6.0625 -0.125 6.125 C-1.3315625 6.0940625 -1.3315625 6.0940625 -2.5625 6.0625 C-2.94468767 4.40635343 -3.27645102 2.73792976 -3.5625 1.0625 C-2.5625 0.0625 -2.5625 0.0625 0 0 Z " fill="#163646" transform="translate(39.5625,177.9375)" /><path d="M0 0 C1.32 0 2.64 0 4 0 C4 1.98 4 3.96 4 6 C2.0625 6.5625 2.0625 6.5625 0 7 C-1 6 -1 6 -1.125 3.5 C-1 1 -1 1 0 0 Z " fill="#F7F8F9" transform="translate(172,235)" /><path d="M0 0 C2.0625 0.4375 2.0625 0.4375 4 1 C4 2.65 4 4.3 4 6 C2.0625 6.5625 2.0625 6.5625 0 7 C-1 6 -1 6 -1.125 3.5 C-1 1 -1 1 0 0 Z " fill="#F9FAFA" transform="translate(208,235)" /><path d="M0 0 C1.98 0 3.96 0 6 0 C6.33 2.97 6.66 5.94 7 9 C6.01 8.01 5.02 7.02 4 6 C4 4.68 4 3.36 4 2 C3.34 2 2.68 2 2 2 C1.67 2.66 1.34 3.32 1 4 C0.67 2.68 0.34 1.36 0 0 Z " fill="#123044" transform="translate(297,226)" /><path d="M0 0 C1.258125 -0.04125 2.51625 -0.0825 3.8125 -0.125 C4.52019531 -0.14820313 5.22789062 -0.17140625 5.95703125 -0.1953125 C8 0 8 0 11 2 C11.1875 5.125 11.1875 5.125 11 8 C10.34 8 9.68 8 9 8 C8.7215625 6.824375 8.7215625 6.824375 8.4375 5.625 C7.16038373 2.60623658 7.16038373 2.60623658 3.375 1.6875 C2.26125 1.460625 1.1475 1.23375 0 1 C0 0.67 0 0.34 0 0 Z " fill="#0A2A3F" transform="translate(314,226)" /><path d="M0 0 C1.98 0 3.96 0 6 0 C6 1.65 6 3.3 6 5 C4.02 5 2.04 5 0 5 C0 3.35 0 1.7 0 0 Z " fill="#EFF1F2" transform="translate(351,236)" /><path d="M0 0 C1.65 0 3.3 0 5 0 C5.33 1.65 5.66 3.3 6 5 C4.02 5 2.04 5 0 5 C0 3.35 0 1.7 0 0 Z " fill="#E6E9EA" transform="translate(351,228)" /><path d="M0 0 C0.66 0 1.32 0 2 0 C2.33 2.64 2.66 5.28 3 8 C1.35 8 -0.3 8 -2 8 C-1.34 5.36 -0.68 2.72 0 0 Z " fill="#D5D9DC" transform="translate(390,228)" /><path d="M0 0 C0.99 0 1.98 0 3 0 C2.34 3.3 1.68 6.6 1 10 C0.67 10 0.34 10 0 10 C-0.33 8.35 -0.66 6.7 -1 5 C-1.99 5.495 -1.99 5.495 -3 6 C-2.42655063 3.13275314 -2.1385485 2.1385485 0 0 Z " fill="#0F2F42" transform="translate(242,200)" /><path d="M0 0 C6.0546875 -0.1953125 6.0546875 -0.1953125 8 0 C8.66 0.66 9.32 1.32 10 2 C7.07175348 2.97608217 5.04386724 3.08226668 2 3 C1.34 4.32 0.68 5.64 0 7 C0 4.69 0 2.38 0 0 Z " fill="#08273D" transform="translate(349,226)" /><path d="M0 0 C0.33 0 0.66 0 1 0 C1 4.29 1 8.58 1 13 C0.34 11.68 -0.32 10.36 -1 9 C-1.99 9.495 -1.99 9.495 -3 10 C-2.01 6.7 -1.02 3.4 0 0 Z " fill="#DADEE1" transform="translate(283,230)" /><path d="M0 0 C0.66 0 1.32 0 2 0 C2.33 2.64 2.66 5.28 3 8 C1.68 8 0.36 8 -1 8 C-0.67 5.36 -0.34 2.72 0 0 Z " fill="#DFE3E5" transform="translate(299,228)" /><path d="M0 0 C0 0.66 0 1.32 0 2 C-1.11375 2.103125 -2.2275 2.20625 -3.375 2.3125 C-4.57125 2.539375 -5.7675 2.76625 -7 3 C-7.66 3.99 -8.32 4.98 -9 6 C-9.33 4.35 -9.66 2.7 -10 1 C-6.78548731 -0.60725635 -3.56387464 -0.05748185 0 0 Z " fill="#06263B" transform="translate(262,226)" /><path d="M0 0 C0.33 0.99 0.66 1.98 1 3 C2.32 3 3.64 3 5 3 C5.33 2.01 5.66 1.02 6 0 C6.33 1.32 6.66 2.64 7 4 C5.02 4 3.04 4 1 4 C0.67 4.99 0.34 5.98 0 7 C-1 6 -1 6 -1.125 3.5 C-1 1 -1 1 0 0 Z " fill="#485B6A" transform="translate(196,235)" /><path d="M0 0 C3.5 -0.375 3.5 -0.375 7 0 C7.66 0.99 8.32 1.98 9 3 C5.37 3 1.74 3 -2 3 C-1.34 2.01 -0.68 1.02 0 0 Z " fill="#062A3D" transform="translate(285,214)" /><path d="M0 0 C2.31 0 4.62 0 7 0 C6 3 6 3 4 4 C2.45976004 4.06950541 0.91665012 4.08452357 -0.625 4.0625 C-1.85089844 4.04896484 -1.85089844 4.04896484 -3.1015625 4.03515625 C-4.04128906 4.01775391 -4.04128906 4.01775391 -5 4 C-5 3.67 -5 3.34 -5 3 C-2.36 3 0.28 3 3 3 C3 2.34 3 1.68 3 1 C2.01 0.67 1.02 0.34 0 0 Z " fill="#07293D" transform="translate(219,198)" /><path d="M0 0 C0.66 0 1.32 0 2 0 C2 3.3 2 6.6 2 10 C1.01 9.67 0.02 9.34 -1 9 C-0.67 6.03 -0.34 3.06 0 0 Z " fill="#666E7C" transform="translate(143,233)" /><path d="M0 0 C-2 2 -2 2 -3.9453125 2.1953125 C-5.96354167 2.13020833 -7.98177083 2.06510417 -10 2 C-10 1.34 -10 0.68 -10 0 C-3.375 -1.125 -3.375 -1.125 0 0 Z " fill="#133346" transform="translate(262,241)" /><path d="M0 0 C1.98 0.99 1.98 0.99 4 2 C3.34 4.31 2.68 6.62 2 9 C1.34 9 0.68 9 0 9 C0 6.03 0 3.06 0 0 Z " fill="#6E7D8A" transform="translate(181,234)" /><path d="M0 0 C1.258125 -0.020625 2.51625 -0.04125 3.8125 -0.0625 C4.52019531 -0.07410156 5.22789062 -0.08570313 5.95703125 -0.09765625 C8 0 8 0 11 1 C11 1.99 11 2.98 11 4 C9.35 3.67 7.7 3.34 6 3 C6 2.34 6 1.68 6 1 C4.02 1 2.04 1 0 1 C0 0.67 0 0.34 0 0 Z " fill="#36505E" transform="translate(249,213)" /><path d="M0 0 C1.5625 1.1875 1.5625 1.1875 3 3 C2.6875 5.6875 2.6875 5.6875 2 8 C1.01 7.67 0.02 7.34 -1 7 C-0.67 4.69 -0.34 2.38 0 0 Z " fill="#314D5D" transform="translate(296,228)" /><path d="M0 0 C2.31 0 4.62 0 7 0 C7.33 1.32 7.66 2.64 8 4 C4.31245243 3.50168276 2.39509338 2.89932357 0 0 Z " fill="#395462" transform="translate(287,185)" /><path d="M0 0 C0.66 0.99 1.32 1.98 2 3 C1.67 3.99 1.34 4.98 1 6 C-0.32 5.34 -1.64 4.68 -3 4 C-2.67 3.01 -2.34 2.02 -2 1 C-1.34 0.67 -0.68 0.34 0 0 Z " fill="#294555" transform="translate(178,173)" /></svg>
